#N canvas 22 75 930 983 10;
#X obj 105 68 tgl 15 0 empty empty empty 17 7 0 10 -262144 -1 -1 0
1;
#X obj 105 88 dsp;
#X text 125 65 turn on the patch and start DSP;
#N canvas 22 383 930 675 decoder 0;
#X obj 132 126 inlet;
#X obj 132 151 metro 10;
#X msg 225 193 close;
#X msg 192 151 devices;
#X obj 132 252 sel 255;
#X obj 132 279 zl group 20;
#X obj 132 304 unpack 0 0 0 0 0 0 0 0 0 0 0 0;
#X text 186 251 find the delimiter in the message;
#X text 213 272 group the messages into a single list bang at inlet
dumps list;
#X text 320 303 unpack the list;
#N canvas 1288 589 610 469 s 0;
#X obj 68 55 inlet;
#X obj 124 55 inlet;
#X text 169 54 get the most and least significant bits of our value
;
#X obj 68 90 << 3;
#X obj 109 137 +;
#X obj 109 174 outlet;
#X connect 0 0 3 0;
#X connect 1 0 4 1;
#X connect 3 0 4 0;
#X connect 4 0 5 0;
#X restore 167 333 pd s;
#N canvas 22 765 930 293 s 0;
#X obj 68 55 inlet;
#X obj 124 55 inlet;
#X text 169 54 get the most and least significant bits of our value
;
#X obj 68 90 << 3;
#X obj 109 137 +;
#X obj 109 174 outlet;
#X connect 0 0 3 0;
#X connect 1 0 4 1;
#X connect 3 0 4 0;
#X connect 4 0 5 0;
#X restore 132 333 pd s;
#N canvas 1288 589 610 469 s 0;
#X obj 68 55 inlet;
#X obj 124 55 inlet;
#X text 169 54 get the most and least significant bits of our value
;
#X obj 68 90 << 3;
#X obj 109 137 +;
#X obj 109 174 outlet;
#X connect 0 0 3 0;
#X connect 1 0 4 1;
#X connect 3 0 4 0;
#X connect 4 0 5 0;
#X restore 204 333 pd s;
#N canvas 1288 589 610 469 s 0;
#X obj 68 55 inlet;
#X obj 124 55 inlet;
#X text 169 54 get the most and least significant bits of our value
;
#X obj 68 90 << 3;
#X obj 109 137 +;
#X obj 109 174 outlet;
#X connect 0 0 3 0;
#X connect 1 0 4 1;
#X connect 3 0 4 0;
#X connect 4 0 5 0;
#X restore 238 333 pd s;
#N canvas 1288 589 610 469 s 0;
#X obj 68 55 inlet;
#X obj 124 55 inlet;
#X text 169 54 get the most and least significant bits of our value
;
#X obj 68 90 << 3;
#X obj 109 137 +;
#X obj 109 174 outlet;
#X connect 0 0 3 0;
#X connect 1 0 4 1;
#X connect 3 0 4 0;
#X connect 4 0 5 0;
#X restore 275 333 pd s;
#N canvas 1288 589 610 469 s 0;
#X obj 68 55 inlet;
#X obj 124 55 inlet;
#X text 169 54 get the most and least significant bits of our value
;
#X obj 68 90 << 3;
#X obj 109 137 +;
#X obj 109 174 outlet;
#X connect 0 0 3 0;
#X connect 1 0 4 1;
#X connect 3 0 4 0;
#X connect 4 0 5 0;
#X restore 311 332 pd s;
#X obj 132 462 outlet;
#X obj 167 439 outlet;
#X obj 204 417 outlet;
#X obj 238 396 outlet;
#X obj 275 376 outlet;
#X obj 311 355 outlet;
#X text 341 331 compute the value;
#X msg 208 172 open 0;
#X obj 132 228 comport 0 115200;
#X text 245 150 find the right port to use;
#X text 255 171 open the correct port;
#X text 267 192 close the port on completion;
#X connect 0 0 1 0;
#X connect 1 0 24 0;
#X connect 2 0 24 0;
#X connect 3 0 24 0;
#X connect 4 0 5 0;
#X connect 4 1 5 0;
#X connect 5 0 6 0;
#X connect 6 0 11 0;
#X connect 6 1 11 1;
#X connect 6 2 10 0;
#X connect 6 3 10 1;
#X connect 6 4 12 0;
#X connect 6 5 12 1;
#X connect 6 6 13 0;
#X connect 6 7 13 1;
#X connect 6 8 14 0;
#X connect 6 9 14 1;
#X connect 6 10 15 0;
#X connect 6 11 15 1;
#X connect 10 0 17 0;
#X connect 11 0 16 0;
#X connect 12 0 18 0;
#X connect 13 0 19 0;
#X connect 14 0 20 0;
#X connect 15 0 21 0;
#X connect 23 0 24 0;
#X connect 24 0 4 0;
#X restore 105 117 pd decoder;
#X floatatom 105 151 5 0 0 0 - - -;
#X floatatom 187 209 5 0 0 0 - - -;
#X floatatom 238 210 5 0 0 0 - - -;
#X text 120 165 tempo;
#X text 188 223 range;
#X text 277 209 step;
#X obj 106 209 metro 500;
#X obj 106 186 tgl 15 0 empty empty empty 17 7 0 10 -262144 -1 -1 1
1;
#X obj 106 252 drunk 100 10;
#X obj 106 281 expr $f1 * sin($f1);
#X text 188 251 randomly walk along the domain;
#X text 230 280 compute the value of the function;
#X text 125 184 ------------------- toggle function sampling;
#X floatatom 106 308 5 0 0 0 - - -;
#X connect 0 0 1 0;
#X connect 1 0 3 0;
#X connect 3 0 4 0;
#X connect 3 1 5 0;
#X connect 3 2 6 0;
#X connect 4 0 10 1;
#X connect 5 0 12 1;
#X connect 6 0 12 2;
#X connect 10 0 12 0;
#X connect 11 0 10 0;
#X connect 12 0 13 0;
#X connect 13 0 17 0;
